<svg id="Livello_1" data-name="Livello 1" xmlns="http://www.w3.org/2000/svg" viewBox="0 0 52.21 53.49"><defs><style>.cls-1{fill:#010101;}</style></defs><title>website-icon</title><path class="cls-1" d="M315.82,395.2H279.25a7.83,7.83,0,0,0-7.86,7.86v37.78a7.83,7.83,0,0,0,7.86,7.86h36.49a7.83,7.83,0,0,0,7.86-7.86V403.06A7.77,7.77,0,0,0,315.82,395.2Zm-17,7.28a3.21,3.21,0,1,1-3.21,3.21A3.16,3.16,0,0,1,298.82,402.48Zm-9.07,0a3.21,3.21,0,1,1-3.21,3.21A3.16,3.16,0,0,1,289.75,402.48Zm-8.43,0a3.21,3.21,0,1,1-3.21,3.21A3.2,3.2,0,0,1,281.32,402.48Zm38.07,38.28a3.54,3.54,0,0,1-3.57,3.57H279.25a3.54,3.54,0,0,1-3.57-3.57V417.55h43.64v23.21h0.07Z" transform="translate(-271.4 -395.2)"/></svg>